<svg width="24" height="32" viewBox="0 0 24 32" fill="none" xmlns="http://www.w3.org/2000/svg">
<path d="M15.5386 26.8633V27.5744H2.84446V26.8633H15.5386ZM17.672 24.73V2.84446C17.672 1.66625 16.7168 0.711118 15.5386 0.711115H2.84446C1.66624 0.711115 0.711115 1.66625 0.711115 2.84446V24.73C0.711115 25.9082 1.66625 26.8633 2.84446 26.8633V27.5744L2.69793 27.571C1.19507 27.4947 0 26.2518 0 24.73V2.84446C0 1.32265 1.19508 0.0800822 2.69793 0.00381946L2.84446 0H15.5386L15.6851 0.00381946C17.188 0.0800854 18.3831 1.32266 18.3831 2.84446V24.73L18.3793 24.8765C18.3055 26.3309 17.1395 27.4972 15.6851 27.571L15.5386 27.5744V26.8633C16.7168 26.8633 17.672 25.9082 17.672 24.73Z" fill="#54F2F2"/>
<path d="M17.9216 28.9061V29.6172H5.22745V28.9061H17.9216ZM20.055 26.7727V5.22746C20.055 4.04924 19.0998 3.09411 17.9216 3.09411H5.22745C4.04924 3.09411 3.09411 4.04924 3.09411 5.22746V26.7727C3.09411 27.9509 4.04924 28.9061 5.22745 28.9061V29.6172L5.08092 29.6133C3.57807 29.5371 2.383 28.2945 2.383 26.7727V5.22746C2.383 3.70565 3.57807 2.46308 5.08092 2.38682L5.22745 2.383H17.9216L18.0681 2.38682C19.571 2.46308 20.7661 3.70565 20.7661 5.22746V26.7727L20.7622 26.9192C20.6885 28.3736 19.5225 29.5395 18.0681 29.6133L17.9216 29.6172V28.9061C19.0998 28.9061 20.055 27.9509 20.055 26.7727Z" fill="#BEEE62"/>
<path d="M20.3046 31.2889V32H7.61045V31.2889H20.3046ZM22.438 29.1555V7.27C22.438 6.09178 21.4828 5.13665 20.3046 5.13665H7.61045C6.43224 5.13665 5.47711 6.09178 5.47711 7.27V29.1555C5.47711 30.3337 6.43224 31.2889 7.61045 31.2889V32L7.46392 31.9965C5.96106 31.9202 4.76599 30.6773 4.76599 29.1555V7.27C4.76599 5.74819 5.96107 4.50562 7.46392 4.42936L7.61045 4.42554H20.3046L20.4511 4.42936C21.954 4.50562 23.1491 5.74819 23.1491 7.27V29.1555L23.1452 29.302C23.0715 30.7564 21.9055 31.9227 20.4511 31.9965L20.3046 32V31.2889C21.4828 31.2889 22.438 30.3337 22.438 29.1555Z" fill="#F4743B"/>
</svg>
