<svg width="102" height="32" viewBox="0 0 102 32" fill="none" xmlns="http://www.w3.org/2000/svg">
<path d="M95.6634 22.617V13.2033H98.1945V14.8458H98.2926C98.4642 14.2615 98.7522 13.8203 99.1567 13.522C99.5612 13.2197 100.027 13.0685 100.554 13.0685C100.685 13.0685 100.826 13.0767 100.977 13.093C101.128 13.1093 101.261 13.1318 101.375 13.1604V15.4771C101.253 15.4403 101.083 15.4076 100.867 15.379C100.65 15.3504 100.452 15.3361 100.272 15.3361C99.8881 15.3361 99.5449 15.4199 99.2425 15.5874C98.9443 15.7508 98.7073 15.9796 98.5316 16.2738C98.36 16.568 98.2742 16.9071 98.2742 17.2912V22.617H95.6634Z" fill="white"/>
<path d="M89.6389 22.8008C88.6705 22.8008 87.837 22.6047 87.1384 22.2125C86.4438 21.8161 85.9085 21.2564 85.5326 20.5332C85.1567 19.8059 84.9688 18.9459 84.9688 17.953C84.9688 16.9847 85.1567 16.1348 85.5326 15.4035C85.9085 14.6721 86.4376 14.1021 87.12 13.6936C87.8064 13.285 88.6113 13.0807 89.5347 13.0807C90.1557 13.0807 90.7339 13.1808 91.2691 13.381C91.8084 13.5771 92.2783 13.8733 92.6787 14.2697C93.0832 14.666 93.3978 15.1644 93.6225 15.7651C93.8472 16.3616 93.9596 17.0603 93.9596 17.8611V18.5781H86.0107V16.9602H91.502C91.502 16.5843 91.4203 16.2513 91.2568 15.9612C91.0934 15.6711 90.8666 15.4443 90.5766 15.2809C90.2905 15.1134 89.9576 15.0296 89.5776 15.0296C89.1813 15.0296 88.8299 15.1215 88.5234 15.3054C88.2211 15.4852 87.9841 15.7283 87.8125 16.0347C87.6409 16.3371 87.5531 16.6741 87.549 17.046V18.5843C87.549 19.05 87.6348 19.4525 87.8064 19.7916C87.9821 20.1307 88.2293 20.3922 88.548 20.5761C88.8666 20.7599 89.2446 20.8519 89.6818 20.8519C89.9719 20.8519 90.2374 20.811 90.4785 20.7293C90.7196 20.6476 90.9259 20.525 91.0975 20.3616C91.2691 20.1982 91.3998 19.9979 91.4897 19.761L93.9044 19.9203C93.7819 20.5005 93.5306 21.0071 93.1506 21.4402C92.7747 21.8692 92.2885 22.2043 91.692 22.4453C91.0995 22.6823 90.4152 22.8008 89.6389 22.8008Z" fill="white"/>
<path d="M80.6465 22.6169V13.2032H83.2573V22.6169H80.6465ZM81.9581 11.9897C81.5699 11.9897 81.2369 11.861 80.9591 11.6036C80.6853 11.3421 80.5485 11.0296 80.5485 10.6659C80.5485 10.3064 80.6853 9.99791 80.9591 9.7405C81.2369 9.47901 81.5699 9.34827 81.9581 9.34827C82.3462 9.34827 82.6772 9.47901 82.9509 9.7405C83.2287 9.99791 83.3677 10.3064 83.3677 10.6659C83.3677 11.0296 83.2287 11.3421 82.9509 11.6036C82.6772 11.861 82.3462 11.9897 81.9581 11.9897Z" fill="white"/>
<path d="M79.0515 13.2033V15.1645H73.2415V13.2033H79.0515ZM74.5715 22.617V12.523C74.5715 11.8407 74.7042 11.2748 74.9698 10.8254C75.2395 10.3759 75.6072 10.0388 76.073 9.81413C76.5388 9.58941 77.0679 9.47705 77.6603 9.47705C78.0607 9.47705 78.4264 9.50769 78.7574 9.56898C79.0924 9.63027 79.3416 9.68543 79.5051 9.73446L79.0393 11.6956C78.9371 11.663 78.8105 11.6323 78.6593 11.6037C78.5122 11.5751 78.361 11.5608 78.2058 11.5608C77.8217 11.5608 77.5541 11.6507 77.4029 11.8305C77.2517 12.0062 77.1762 12.2534 77.1762 12.572V22.617H74.5715Z" fill="white"/>
<path d="M69.287 22.6169V13.2032H71.8978V22.6169H69.287ZM70.5985 11.9897C70.2104 11.9897 69.8774 11.861 69.5995 11.6036C69.3258 11.3421 69.1889 11.0296 69.1889 10.6659C69.1889 10.3064 69.3258 9.99791 69.5995 9.7405C69.8774 9.47901 70.2104 9.34827 70.5985 9.34827C70.9867 9.34827 71.3176 9.47901 71.5914 9.7405C71.8692 9.99791 72.0081 10.3064 72.0081 10.6659C72.0081 11.0296 71.8692 11.3421 71.5914 11.6036C71.3176 11.861 70.9867 11.9897 70.5985 11.9897Z" fill="white"/>
<path d="M61.6077 19.9081L61.6138 16.7764H61.9938L65.0091 13.2033H68.0061L63.955 17.9347H63.336L61.6077 19.9081ZM59.242 22.617V10.0654H61.8529V22.617H59.242ZM65.1256 22.617L62.3554 18.5169L64.096 16.6722L68.1838 22.617H65.1256Z" fill="white"/>
<path d="M57.3835 15.8876L54.9933 16.0347C54.9525 15.8304 54.8646 15.6466 54.7298 15.4831C54.595 15.3156 54.4172 15.1828 54.1966 15.0848C53.98 14.9826 53.7206 14.9316 53.4182 14.9316C53.0137 14.9316 52.6726 15.0174 52.3947 15.189C52.1169 15.3565 51.978 15.5812 51.978 15.8631C51.978 16.0878 52.0679 16.2778 52.2477 16.4331C52.4274 16.5883 52.7359 16.713 53.1731 16.8069L54.8769 17.1501C55.7921 17.3381 56.4744 17.6404 56.9239 18.0572C57.3733 18.4739 57.598 19.0214 57.598 19.6997C57.598 20.3166 57.4162 20.858 57.0526 21.3238C56.693 21.7896 56.1986 22.1532 55.5694 22.4147C54.9443 22.6721 54.2231 22.8008 53.406 22.8008C52.1598 22.8008 51.167 22.5414 50.4274 22.0225C49.692 21.4995 49.2609 20.7885 49.1343 19.8897L51.7022 19.7548C51.7798 20.1348 51.9678 20.4249 52.266 20.6251C52.5643 20.8212 52.9463 20.9193 53.4121 20.9193C53.8697 20.9193 54.2374 20.8315 54.5153 20.6558C54.7972 20.476 54.9402 20.2451 54.9443 19.9632C54.9402 19.7262 54.8401 19.5322 54.644 19.381C54.4479 19.2257 54.1455 19.1072 53.7369 19.0255L52.1067 18.7007C51.1874 18.5168 50.503 18.1982 50.0536 17.7446C49.6082 17.2911 49.3856 16.713 49.3856 16.0102C49.3856 15.4055 49.549 14.8846 49.8759 14.4474C50.2068 14.0102 50.6705 13.6731 51.2671 13.4362C51.8677 13.1992 52.5704 13.0807 53.3753 13.0807C54.5643 13.0807 55.5 13.332 56.1823 13.8345C56.8687 14.3371 57.2691 15.0214 57.3835 15.8876Z" fill="white"/>
<path d="M42.2242 22.7947C41.6236 22.7947 41.0883 22.6905 40.6185 22.4821C40.1486 22.2697 39.7768 21.9571 39.503 21.5444C39.2334 21.1277 39.0985 20.6088 39.0985 19.9877C39.0985 19.4648 39.1946 19.0255 39.3866 18.6701C39.5786 18.3146 39.8401 18.0286 40.1711 17.812C40.502 17.5955 40.8779 17.4321 41.2987 17.3217C41.7237 17.2114 42.169 17.1338 42.6348 17.0889C43.1823 17.0317 43.6236 16.9785 43.9586 16.9295C44.2936 16.8764 44.5367 16.7988 44.6879 16.6966C44.8391 16.5945 44.9147 16.4433 44.9147 16.2431V16.2063C44.9147 15.8182 44.7921 15.5179 44.5469 15.3054C44.3059 15.0929 43.9627 14.9867 43.5173 14.9867C43.0475 14.9867 42.6736 15.0909 42.3958 15.2993C42.1179 15.5036 41.9341 15.761 41.8442 16.0715L39.4295 15.8754C39.5521 15.3034 39.7931 14.809 40.1527 14.3922C40.5122 13.9714 40.976 13.6486 41.5439 13.4239C42.1159 13.1951 42.7778 13.0807 43.5296 13.0807C44.0526 13.0807 44.5531 13.142 45.0311 13.2645C45.5132 13.3871 45.9402 13.5771 46.312 13.8345C46.6879 14.0919 46.9841 14.4229 47.2007 14.8274C47.4172 15.2278 47.5255 15.7079 47.5255 16.2676V22.6169H45.0495V21.3115H44.976C44.8248 21.6057 44.6225 21.8652 44.3692 22.0899C44.1159 22.3105 43.8115 22.4842 43.456 22.6108C43.1006 22.7334 42.69 22.7947 42.2242 22.7947ZM42.9719 20.9928C43.3559 20.9928 43.6951 20.9173 43.9892 20.7661C44.2834 20.6108 44.5143 20.4024 44.6818 20.141C44.8493 19.8795 44.9331 19.5832 44.9331 19.2523V18.2533C44.8513 18.3064 44.739 18.3555 44.596 18.4004C44.4571 18.4413 44.2998 18.4801 44.1241 18.5168C43.9484 18.5495 43.7727 18.5802 43.597 18.6088C43.4213 18.6333 43.262 18.6558 43.119 18.6762C42.8125 18.7211 42.5449 18.7926 42.3161 18.8907C42.0873 18.9888 41.9096 19.1215 41.7829 19.2891C41.6562 19.4525 41.5929 19.6568 41.5929 19.9019C41.5929 20.2574 41.7216 20.5291 41.979 20.717C42.2405 20.9009 42.5715 20.9928 42.9719 20.9928Z" fill="white"/>
<path d="M28.8636 12.2534V10.0654H39.1721V12.2534H35.3294V22.617H32.7063V12.2534H28.8636Z" fill="white"/>
<path d="M15.5386 26.8633V27.5744H2.84446V26.8633H15.5386ZM17.672 24.73V2.84446C17.672 1.66625 16.7168 0.711118 15.5386 0.711115H2.84446C1.66625 0.711115 0.711118 1.66625 0.711118 2.84446V24.73C0.711118 25.9082 1.66625 26.8633 2.84446 26.8633V27.5744L2.69793 27.571C1.19508 27.4947 3.8147e-06 26.2518 3.8147e-06 24.73V2.84446C3.8147e-06 1.32265 1.19508 0.0800822 2.69793 0.00381946L2.84446 0H15.5386L15.6852 0.00381946C17.188 0.0800854 18.3831 1.32266 18.3831 2.84446V24.73L18.3793 24.8765C18.3055 26.3309 17.1395 27.4972 15.6852 27.571L15.5386 27.5744V26.8633C16.7168 26.8633 17.672 25.9082 17.672 24.73Z" fill="#54F2F2"/>
<path d="M17.9216 28.906V29.6171H5.22745V28.906H17.9216ZM20.0549 26.7726V5.22739C20.0549 4.04918 19.0998 3.09405 17.9216 3.09405H5.22745C4.04924 3.09405 3.09411 4.04918 3.09411 5.22739V26.7726C3.09411 27.9509 4.04924 28.906 5.22745 28.906V29.6171L5.08092 29.6133C3.57807 29.537 2.38299 28.2945 2.38299 26.7726V5.22739C2.38299 3.70559 3.57807 2.46302 5.08092 2.38675L5.22745 2.38293H17.9216L18.0681 2.38675C19.571 2.46302 20.7661 3.70559 20.7661 5.22739V26.7726L20.7622 26.9192C20.6884 28.3735 19.5225 29.5395 18.0681 29.6133L17.9216 29.6171V28.906C19.0998 28.906 20.0549 27.9509 20.0549 26.7726Z" fill="#BEEE62"/>
<path d="M20.3046 31.2889V32H7.61044V31.2889H20.3046ZM22.4379 29.1555V7.27C22.4379 6.09178 21.4828 5.13665 20.3046 5.13665H7.61044C6.43223 5.13665 5.4771 6.09178 5.4771 7.27V29.1555C5.4771 30.3337 6.43223 31.2889 7.61044 31.2889V32L7.46391 31.9965C5.96106 31.9202 4.76598 30.6773 4.76598 29.1555V7.27C4.76598 5.74819 5.96106 4.50562 7.46391 4.42936L7.61044 4.42554H20.3046L20.4511 4.42936C21.954 4.50562 23.1491 5.74819 23.1491 7.27V29.1555L23.1452 29.302C23.0715 30.7564 21.9055 31.9227 20.4511 31.9965L20.3046 32V31.2889C21.4828 31.2889 22.4379 30.3337 22.4379 29.1555Z" fill="#F4743B"/>
</svg>
